<svg width="100" height="100" viewBox="0 0 24 24" fill="none" stroke="currentColor" stroke-width="2" stroke-linecap="round" stroke-linejoin="round" xmlns="http://www.w3.org/2000/svg"><path d="M6.387 6.249h7.652a1.913 1.913 0 0 1 1.912 1.913v11.477a1.913 1.913 0 0 1-1.912 1.913H6.387a1.913 1.913 0 0 1-1.913-1.913V8.162a1.913 1.913 0 0 1 1.913-1.913Z" style="stroke-width:1.91283"/><path d="M17.536 3.493h-10a1 1 0 1 1 0-2h10a3 3 0 0 1 3 3v14a1 1 0 1 1-2 0v-14a1 1 0 0 0-1-1z" fill="#000" stroke="none"/></svg>
